solid cube
facet normal 0 0 0
outer loop
vertex 0.0037499999999999999 0.0037499999999999999 0.0037499999999999999
vertex 0.0037499999999999999 0.0037499999999999999 0.0062500000000000003
vertex 0.0037499999999999999 0.0062500000000000003 0.0062500000000000003
endloop
endfacet
facet normal 0 0 0
outer loop
vertex 0.0037499999999999999 0.0037499999999999999 0.0037499999999999999
vertex 0.0037499999999999999 0.0062500000000000003 0.0062500000000000003
vertex 0.0037499999999999999 0.0062500000000000003 0.0037499999999999999
endloop
endfacet
facet normal 0 0 0
outer loop
vertex 0.0062500000000000003 0.0037499999999999999 0.0037499999999999999
vertex 0.0062500000000000003 0.0062500000000000003 0.0037499999999999999
vertex 0.0062500000000000003 0.0062500000000000003 0.0062500000000000003
endloop
endfacet
facet normal 0 0 0
outer loop
vertex 0.0062500000000000003 0.0037499999999999999 0.0037499999999999999
vertex 0.0062500000000000003 0.0062500000000000003 0.0062500000000000003
vertex 0.0062500000000000003 0.0037499999999999999 0.0062500000000000003
endloop
endfacet
facet normal 0 0 0
outer loop
vertex 0.0037499999999999999 0.0037499999999999999 0.0037499999999999999
vertex 0.0062500000000000003 0.0037499999999999999 0.0037499999999999999
vertex 0.0062500000000000003 0.0037499999999999999 0.0062500000000000003
endloop
endfacet
facet normal 0 0 0
outer loop
vertex 0.0037499999999999999 0.0037499999999999999 0.0037499999999999999
vertex 0.0062500000000000003 0.0037499999999999999 0.0062500000000000003
vertex 0.0037499999999999999 0.0037499999999999999 0.0062500000000000003
endloop
endfacet
facet normal 0 0 0
outer loop
vertex 0.0037499999999999999 0.0062500000000000003 0.0037499999999999999
vertex 0.0037499999999999999 0.0062500000000000003 0.0062500000000000003
vertex 0.0062500000000000003 0.0062500000000000003 0.0062500000000000003
endloop
endfacet
facet normal 0 0 0
outer loop
vertex 0.0037499999999999999 0.0062500000000000003 0.0037499999999999999
vertex 0.0062500000000000003 0.0062500000000000003 0.0062500000000000003
vertex 0.0062500000000000003 0.0062500000000000003 0.0037499999999999999
endloop
endfacet
facet normal 0 0 0
outer loop
vertex 0.0037499999999999999 0.0037499999999999999 0.0037499999999999999
vertex 0.0037499999999999999 0.0062500000000000003 0.0037499999999999999
vertex 0.0062500000000000003 0.0062500000000000003 0.0037499999999999999
endloop
endfacet
facet normal 0 0 0
outer loop
vertex 0.0037499999999999999 0.0037499999999999999 0.0037499999999999999
vertex 0.0062500000000000003 0.0062500000000000003 0.0037499999999999999
vertex 0.0062500000000000003 0.0037499999999999999 0.0037499999999999999
endloop
endfacet
facet normal 0 0 0
outer loop
vertex 0.0037499999999999999 0.0037499999999999999 0.0062500000000000003
vertex 0.0062500000000000003 0.0037499999999999999 0.0062500000000000003
vertex 0.0062500000000000003 0.0062500000000000003 0.0062500000000000003
endloop
endfacet
facet normal 0 0 0
outer loop
vertex 0.0037499999999999999 0.0037499999999999999 0.0062500000000000003
vertex 0.0062500000000000003 0.0062500000000000003 0.0062500000000000003
vertex 0.0037499999999999999 0.0062500000000000003 0.0062500000000000003
endloop
endfacet
endsolid cube
